<svg width="1016" height="853" viewBox="0 0 1016 853" fill="none" xmlns="http://www.w3.org/2000/svg">
<path fill-rule="evenodd" clip-rule="evenodd" d="M242 390.5C410.85 390.5 484 325.6 484 191.95V0H341V191.95C341 232.65 326.15 269.5 242 269.5C157.85 269.5 143 233.2 143 191.95V0H0V191.95C0 326.15 72.6 390.5 242 390.5ZM1015.1 0H872.1V227.15L706 0H519V385H662V157.85L828.1 385H1015.1V0ZM353.1 462H496.1V847H309.1L143 619.85V847H0V462H187L353.1 689.15V462ZM531.5 653.95C531.5 788.15 604.1 852.5 773.5 852.5C942.35 852.5 1015.5 787.6 1015.5 653.95C1015.5 520.85 942.35 456.5 773.5 456.5C604.1 456.5 531.5 520.3 531.5 653.95ZM872.5 653.95C872.5 694.65 857.65 731.5 773.5 731.5C689.35 731.5 674.5 695.2 674.5 653.95C674.5 613.25 688.8 577.5 773.5 577.5C858.2 577.5 872.5 613.8 872.5 653.95Z" fill="white"/>
</svg>
