<svg width="16" height="16" viewBox="0 0 16 16" fill="none" xmlns="http://www.w3.org/2000/svg">
<rect width="16" height="16" fill="black"/>
<g clip-path="url(#clip0_1_201)">
<path fill-rule="evenodd" clip-rule="evenodd" d="M4.73481 7.55686C6.81739 7.55686 7.71961 6.75797 7.71961 5.11281V2.75H5.95586V5.11281C5.95586 5.6138 5.7727 6.06741 4.73481 6.06741C3.69691 6.06741 3.51375 5.62057 3.51375 5.11281V2.75H1.75V5.11281C1.75 6.76474 2.64544 7.55686 4.73481 7.55686ZM14.2701 2.75H12.5064V5.5461L10.4577 2.75H8.1513V7.48916H9.91505V4.69305L11.9637 7.48916H14.2701V2.75ZM6.1051 8.43699H7.86885V13.1761H5.56241L3.51375 10.38V13.1761H1.75V8.43699H4.05644L6.1051 11.2331V8.43699ZM8.30547 10.7998C8.30547 12.4517 9.20091 13.2438 11.2903 13.2438C13.3729 13.2438 14.2751 12.445 14.2751 10.7998C14.2751 9.1614 13.3729 8.36928 11.2903 8.36928C9.20091 8.36928 8.30547 9.15463 8.30547 10.7998ZM12.5113 10.7998C12.5113 11.3008 12.3282 11.7544 11.2903 11.7544C10.2524 11.7544 10.0692 11.3076 10.0692 10.7998C10.0692 10.2988 10.2456 9.85873 11.2903 9.85873C12.335 9.85873 12.5113 10.3056 12.5113 10.7998Z" fill="white"/>
</g>
<defs>
<clipPath id="clip0_1_201">
<rect width="12.5312" height="10.5" fill="white" transform="translate(1.75 2.75)"/>
</clipPath>
</defs>
</svg>
